<mxfile host="app.diagrams.net" modified="2022-01-15T03:48:31.663Z" agent="5.0 (X11; Linux x86_64) AppleWebKit/537.36 (KHTML, like Gecko) Chrome/99.0.4811.0 Safari/537.36 Edg/99.0.1131.3" etag="DHqyF9_2VLBszOlpvZCG" version="16.2.7" type="github">
  <diagram id="EVyWv7_xeyxzMkf9LyKp" name="第 1 页">
    <mxGraphModel dx="981" dy="572" grid="1" gridSize="10" guides="1" tooltips="1" connect="1" arrows="1" fold="1" page="1" pageScale="1" pageWidth="850" pageHeight="1100" math="0" shadow="0">
      <root>
        <mxCell id="0" />
        <mxCell id="1" parent="0" />
        <mxCell id="ZZGDymxMc-XeTdS5SKUL-1" value="" style="rounded=1;whiteSpace=wrap;html=1;" vertex="1" parent="1">
          <mxGeometry x="70" y="370" width="120" height="60" as="geometry" />
        </mxCell>
        <mxCell id="ZZGDymxMc-XeTdS5SKUL-2" value="" style="rounded=1;whiteSpace=wrap;html=1;" vertex="1" parent="1">
          <mxGeometry x="250" y="370" width="120" height="60" as="geometry" />
        </mxCell>
      </root>
    </mxGraphModel>
  </diagram>
</mxfile>
